Coordinates
version=1
nRows=13
nColumns=38
inDegrees=yes

Units are S.I. units (second, meters, Newtons, ...)
Angles are in degrees.

endheader
time	pelvis_tilt	pelvis_list	pelvis_rotation	pelvis_tx	pelvis_ty	pelvis_tz	hip_flexion_r	hip_adduction_r	hip_rotation_r	knee_angle_r	ankle_angle_r	subtalar_angle_r	mtp_angle_r	hip_flexion_l	hip_adduction_l	hip_rotation_l	knee_angle_l	ankle_angle_l	subtalar_angle_l	mtp_angle_l	lumbar_extension	lumbar_bending	lumbar_rotation	arm_flex_r	arm_add_r	arm_rot_r	elbow_flex_r	pro_sup_r	wrist_flex_r	wrist_dev_r	arm_flex_l	arm_add_l	arm_rot_l	elbow_flex_l	pro_sup_l	wrist_flex_l	wrist_dev_l
      1.60000000	     -1.84721049	      0.45225657	      1.04471334	      0.44976183	      0.97068573	     -0.24425620	      5.16225945	      3.32321060	     -5.96817137	    -19.80633973	     15.26675314	     -5.58701490	      0.00000000	     25.14995407	     -5.15179375	    -13.80991806	    -41.17265391	      8.64096202	    -15.78357373	      0.00000000	     -1.25052001	     -1.87672113	     -2.48310139	     11.65189642	     -9.54990509	     54.35726365	     27.60374071	     41.86440469	      0.00000000	      0.00000000	      1.28145244	     -9.64783569	     48.98988964	     20.85817825	     41.86440469	      0.00000000	      0.00000000
      1.61000000	     -1.86636499	      0.37822840	      0.76527741	      0.46010022	      0.97008140	     -0.24379856	      4.40838805	      3.42361678	     -5.87303113	    -19.61716460	     15.62302795	     -5.36891034	      0.00000000	     25.36902751	     -4.87747860	    -13.54940771	    -37.90298437	      8.71789020	    -14.85044909	      0.00000000	     -1.30085947	     -1.78529131	     -2.17831894	     12.36294909	     -9.74241239	     54.33494859	     27.78031308	     41.88919150	      0.00000000	      0.00000000	      0.91635456	     -9.67266279	     48.91607532	     20.77364968	     41.88919150	      0.00000000	      0.00000000
      1.62000000	     -1.96724007	      0.18580934	      0.50018588	      0.47051657	      0.96913018	     -0.24334738	      3.78876337	      3.64816888	     -6.00473616	    -19.49688844	     15.91383489	     -5.21159220	      0.00000000	     25.62997082	     -4.76082222	    -13.54141327	    -34.57458975	      8.60690009	    -14.01343773	      0.00000000	     -1.23171693	     -1.56437296	     -1.84190003	     13.00947866	     -9.93410569	     54.29590438	     27.94021582	     41.90329664	      0.00000000	      0.00000000	      0.59510242	     -9.67540791	     48.87097781	     20.69588794	     41.90329664	      0.00000000	      0.00000000
      1.63000000	     -1.77719713	      0.17216086	      0.17180716	      0.48107745	      0.96850087	     -0.24292494	      2.88487185	      3.53951054	     -6.63768942	    -19.54451216	     16.64215729	     -3.96564374	      0.00000000	     25.52828350	     -4.59293386	    -13.96483869	    -31.34604102	      8.68889348	    -12.27514059	      0.00000000	     -1.53520169	     -1.54445495	     -1.55233306	     13.63265485	    -10.36921532	     54.52310672	     29.05033554	     42.04346201	      0.00000000	      0.00000000	      0.24176032	     -9.62511705	     48.27053139	     20.50479609	     42.04346201	      0.00000000	      0.00000000
      1.64000000	     -1.70692852	      0.07850374	     -0.12132977	      0.49161247	      0.96755904	     -0.24250569	      2.03713933	      3.63640347	     -6.67318400	    -19.39976148	     17.01346226	     -3.74278746	      0.00000000	     25.50250625	     -4.34003614	    -14.04075415	    -28.02585381	      8.44074095	    -11.34055276	      0.00000000	     -1.68824746	     -1.44619983	     -1.24490440	     14.25966517	    -10.52063972	     54.43492830	     29.23969891	     42.06829356	      0.00000000	      0.00000000	     -0.10634831	     -9.61896461	     48.18907583	     20.44630810	     42.06829356	      0.00000000	      0.00000000
      1.65000000	     -1.56498945	      0.03026291	     -0.42754925	      0.50228125	      0.96655695	     -0.24208561	      1.13806185	      3.65184711	     -6.79049501	    -19.34125733	     17.50338874	     -3.36318543	      0.00000000	     25.38906366	     -4.07711593	    -14.17914166	    -24.84247291	      8.24967900	     -9.92410182	      0.00000000	     -1.93098850	     -1.40239756	     -0.95976045	     14.83916529	    -10.64496518	     54.34965798	     29.52362967	     42.09782221	      0.00000000	      0.00000000	     -0.43265920	     -9.67693658	     48.04987308	     20.32790130	     42.09782221	      0.00000000	      0.00000000
      1.66000000	     -1.46953602	      0.01811620	     -0.79968005	      0.51297382	      0.96532915	     -0.24162303	      0.39776082	      3.52585778	     -7.23963480	    -19.55055012	     18.20791491	     -2.20114961	      0.00000000	     25.41117115	     -3.92192554	    -15.11928001	    -22.05464590	      8.40012313	     -7.67190382	      0.00000000	     -2.10555221	     -1.40611027	     -0.58755103	     15.27849461	    -10.91068641	     54.10137496	     30.34211521	     42.21027425	      0.00000000	      0.00000000	     -0.70117905	     -9.64203652	     47.50842273	     20.21709336	     42.21027425	      0.00000000	      0.00000000
      1.67000000	     -1.34655383	      0.12405908	     -1.16300438	      0.52380150	      0.96404835	     -0.24130344	     -0.38243174	      3.27086185	     -7.68134042	    -19.72490505	     18.90092175	     -1.34152142	      0.00000000	     25.33147244	     -3.51194837	    -15.72371464	    -19.30650711	      8.62402841	     -5.92424438	      0.00000000	     -2.30915875	     -1.54936753	     -0.27132748	     15.68310233	    -11.05042661	     53.51021000	     31.02414729	     42.35146387	      0.00000000	      0.00000000	     -1.03433958	     -9.67823901	     46.92026743	     20.27293809	     42.35146387	      0.00000000	      0.00000000
      1.68000000	     -1.24872011	      0.21001239	     -1.54559483	      0.53469813	      0.96265570	     -0.24102910	     -1.17595928	      3.10310586	     -7.64370846	    -19.81561630	     19.33271186	     -1.11980259	      0.00000000	     25.25889389	     -2.99712620	    -16.12578246	    -16.61621383	      8.92522763	     -5.01033854	      0.00000000	     -2.47307722	     -1.65656134	      0.05560872	     16.11871019	    -11.09192929	     53.34417474	     31.18802877	     42.37521099	      0.00000000	      0.00000000	     -1.33359829	     -9.67694777	     46.83475131	     20.23581532	     42.37521099	      0.00000000	      0.00000000
      1.69000000	     -1.10647184	      0.45359776	     -1.97042412	      0.54578804	      0.96130428	     -0.24080930	     -2.02600140	      2.72727825	     -7.57573068	    -19.91002785	     19.91501366	     -0.74677430	      0.00000000	     24.99499010	     -2.37504356	    -16.57185175	    -13.89042261	      9.42704179	     -3.31352394	      0.00000000	     -2.66198077	     -1.94998766	      0.41734330	     16.52572016	    -11.07806947	     53.16473168	     31.39683081	     42.40146075	      0.00000000	      0.00000000	     -1.59416597	     -9.72948449	     46.72007117	     20.17188317	     42.40146075	      0.00000000	      0.00000000
      1.70000000	     -1.05861548	      0.57883080	     -2.32919493	      0.55674294	      0.95960487	     -0.24062237	     -2.66930126	      2.42592811	     -7.80093424	    -20.22500212	     20.45306034	     -0.13614166	      0.00000000	     24.74950227	     -1.87029302	    -16.65712334	    -11.20252728	      9.98451762	     -1.49918235	      0.00000000	     -2.77845181	     -2.14032131	      0.69767574	     16.90244207	    -11.06203788	     52.96572985	     31.60887791	     42.42803477	      0.00000000	      0.00000000	     -1.84192034	     -9.75041784	     46.59577286	     20.10055458	     42.42803477	      0.00000000	      0.00000000
      1.71000000	     -1.23497911	      0.73068547	     -2.72638378	      0.56746161	      0.95749235	     -0.24048652	     -3.10049756	      2.13875003	     -7.70570002	    -20.41124517	     20.88585933	      0.06180280	      0.00000000	     25.13697771	     -1.46299485	    -15.47894941	     -9.60730932	     10.73734144	     -0.54810412	      0.00000000	     -2.65840079	     -2.33515284	      1.06428409	     17.25064643	    -11.03128163	     52.88253704	     31.70122038	     42.43472272	      0.00000000	      0.00000000	     -1.98035792	     -9.78432336	     46.56286236	     20.05350396	     42.43472272	      0.00000000	      0.00000000
      1.72000000	     -1.01303245	      1.36381350	     -3.04639413	      0.57857945	      0.95597581	     -0.24120439	     -3.50185589	      0.74625147	     -9.79256409	    -21.67867031	     22.14455951	      3.73117417	      0.00000000	     24.43090121	     -0.38798940	    -14.71077169	     -6.95230148	     10.36850907	     -0.12215254	      0.00000000	     -2.94603949	     -3.02893410	      1.20140825	     17.44202252	    -10.96871762	     52.02598381	     32.26018440	     42.55477252	      0.00000000	      0.00000000	     -2.19831131	     -9.73458564	     45.93536961	     19.84982451	     42.55477252	      0.00000000	      0.00000000
